<svg width="32" height="9" viewBox="0 0 32 9" fill="none" xmlns="http://www.w3.org/2000/svg">
<path d="M0.988499 4.40705L1.5352 0.147062L2.38371 0.255954L3.00495 3.40164C3.06189 3.69447 3.10272 3.91336 3.12744 4.05831C3.19576 3.90955 3.30052 3.69162 3.44173 3.40452L4.84206 0.571444L5.60049 0.668775L5.05379 4.92876L4.5104 4.85902L4.96797 1.29354L3.2725 4.70016L2.76398 4.6349L1.9973 0.850274L1.53189 4.47678L0.988499 4.40705ZM7.9591 4.91467C7.74425 5.05448 7.54238 5.14672 7.35352 5.1914C7.16659 5.23633 6.97046 5.24562 6.76511 5.21927C6.42609 5.17576 6.1761 5.05999 6.01513 4.87196C5.85441 4.68198 5.79058 4.45817 5.82365 4.20052C5.84304 4.04941 5.8946 3.91622 5.97831 3.80094C6.06421 3.68397 6.16722 3.59479 6.28734 3.53341C6.40939 3.47228 6.54265 3.43129 6.6871 3.41045C6.79326 3.3965 6.95159 3.39024 7.16211 3.39166C7.59089 3.39548 7.90952 3.37533 8.11801 3.3312C8.12914 3.25977 8.13595 3.21437 8.13844 3.195C8.16579 2.9819 8.13566 2.82543 8.04804 2.72557C7.92954 2.59024 7.73856 2.50568 7.47509 2.47186C7.22906 2.44029 7.04137 2.46051 6.91201 2.53252C6.78484 2.60284 6.67911 2.74385 6.59484 2.95555L6.09236 2.82017C6.16695 2.60723 6.26609 2.44077 6.38979 2.32077C6.51374 2.19884 6.68106 2.11496 6.89173 2.06914C7.10265 2.02138 7.34081 2.01453 7.60621 2.04859C7.86967 2.0824 8.07976 2.14087 8.23647 2.22399C8.39318 2.30711 8.50419 2.40111 8.5695 2.50598C8.63505 2.60891 8.67413 2.73404 8.68673 2.88138C8.69273 2.97273 8.68081 3.13464 8.65098 3.36711L8.56148 4.06451C8.49907 4.55076 8.4702 4.86015 8.47485 4.99268C8.48169 5.12352 8.51046 5.25225 8.56116 5.37887L8.01486 5.30876C7.97454 5.19332 7.95595 5.06195 7.9591 4.91467ZM8.06543 3.74092C7.86563 3.79405 7.57241 3.82337 7.18575 3.82888C6.96674 3.83228 6.81019 3.84764 6.7161 3.87495C6.62202 3.90226 6.54591 3.95058 6.48778 4.01992C6.42991 4.08732 6.39512 4.16654 6.38344 4.25759C6.36554 4.39707 6.40293 4.52002 6.49561 4.62643C6.59022 4.73309 6.73923 4.79947 6.94264 4.82558C7.14411 4.85143 7.3289 4.83084 7.49701 4.76381C7.66536 4.69483 7.79616 4.58855 7.88942 4.44495C7.96076 4.33399 8.01123 4.16324 8.04081 3.93271L8.06543 3.74092ZM9.11816 4.51403L9.64584 4.49904C9.6483 4.71006 9.70831 4.87923 9.82587 5.00656C9.94537 5.13413 10.1243 5.21321 10.3625 5.24379C10.6028 5.27462 10.7872 5.24906 10.9159 5.16711C11.0448 5.08323 11.1177 4.97543 11.1346 4.84369C11.1498 4.72552 11.1104 4.62595 11.0164 4.54497C10.9507 4.48927 10.78 4.40732 10.5045 4.29909C10.1333 4.153 9.87763 4.03552 9.73741 3.94664C9.59938 3.85606 9.49958 3.74381 9.438 3.60989C9.37861 3.47427 9.35861 3.33091 9.378 3.1798C9.39565 3.04226 9.44293 2.91935 9.51984 2.81107C9.59893 2.7011 9.69769 2.61434 9.81612 2.55077C9.90519 2.50116 10.0221 2.46496 10.1668 2.44218C10.3137 2.41771 10.4675 2.41579 10.6283 2.43642C10.8705 2.4675 11.0781 2.52959 11.2513 2.6227C11.4263 2.71606 11.5498 2.82839 11.6215 2.95969C11.6935 3.08905 11.7332 3.25561 11.7405 3.45937L11.2202 3.46347C11.2173 3.30164 11.1654 3.16895 11.0645 3.06542C10.9655 2.96214 10.8143 2.89744 10.6109 2.87134C10.3707 2.84051 10.1941 2.85822 10.0813 2.92447C9.96839 2.99072 9.90512 3.07712 9.89145 3.18367C9.88275 3.25147 9.89622 3.31523 9.93188 3.37494C9.96729 3.43659 10.0282 3.49166 10.1145 3.54015C10.1643 3.56624 10.3126 3.63056 10.5594 3.73312C10.9167 3.8794 11.1639 3.99383 11.301 4.07641C11.4403 4.15729 11.5439 4.26314 11.6117 4.39393C11.6796 4.52473 11.7021 4.67925 11.6793 4.85747C11.6569 5.03182 11.5844 5.1899 11.4619 5.3317C11.3415 5.47182 11.1799 5.57219 10.9772 5.63281C10.7747 5.6915 10.5524 5.70531 10.3103 5.67423C9.90925 5.62277 9.61385 5.50019 9.42407 5.30648C9.23623 5.11303 9.13426 4.84888 9.11816 4.51403ZM13.3868 5.52262L13.4031 5.99434C13.2519 6.00645 13.1181 6.00504 13.0019 5.99012C12.8121 5.96576 12.6687 5.91684 12.5718 5.84336C12.4749 5.76988 12.4113 5.68197 12.3811 5.57964C12.3512 5.47537 12.3564 5.26632 12.3966 4.95249L12.6245 3.17701L12.2409 3.12779L12.2931 2.72097L12.6767 2.77019L12.7748 2.00595L13.3352 1.75887L13.1968 2.83694L13.7228 2.90444L13.6706 3.31126L13.1446 3.24376L12.9131 5.0483C12.8939 5.19747 12.8903 5.29448 12.9023 5.33934C12.9162 5.38444 12.9419 5.4222 12.9793 5.4526C13.0187 5.48325 13.0771 5.50355 13.1546 5.5135C13.2127 5.52096 13.2901 5.524 13.3868 5.52262ZM16.0812 5.33378L16.6131 5.46997C16.4873 5.7748 16.298 5.9996 16.0451 6.14437C15.7922 6.28914 15.4866 6.33852 15.1282 6.29253C14.6768 6.2346 14.3362 6.0501 14.1063 5.73901C13.8787 5.42624 13.797 5.01898 13.8614 4.51724C13.928 3.99806 14.1134 3.61226 14.4176 3.35986C14.7217 3.10746 15.0869 3.00861 15.513 3.0633C15.9257 3.11625 16.2447 3.29996 16.4702 3.61443C16.6957 3.92889 16.7757 4.34087 16.7103 4.85036C16.7064 4.88135 16.6994 4.92772 16.6895 4.98947L14.3881 4.69411C14.364 5.03562 14.4265 5.30751 14.5758 5.5098C14.7251 5.71209 14.9286 5.82977 15.1863 5.86284C15.378 5.88745 15.5482 5.85809 15.6967 5.77475C15.8453 5.69142 15.9734 5.54443 16.0812 5.33378ZM14.4724 4.26778L16.1955 4.48892C16.2056 4.22635 16.1647 4.0232 16.0729 3.87948C15.9321 3.65663 15.7291 3.52817 15.4637 3.49411C15.2234 3.46328 15.0107 3.5177 14.8254 3.65736C14.642 3.79727 14.5243 4.00074 14.4724 4.26778ZM17.148 6.48085L17.544 3.39483L18.0148 3.45524L17.9547 3.92309C18.1029 3.71959 18.2319 3.58944 18.3415 3.53263C18.4532 3.47606 18.57 3.45561 18.6921 3.47127C18.8683 3.4939 19.0403 3.57307 19.208 3.7088L18.9656 4.17096C18.8474 4.079 18.7244 4.02481 18.5965 4.00841C18.4822 3.99374 18.3751 4.01543 18.2751 4.07349C18.1753 4.12961 18.0983 4.2162 18.0439 4.33328C17.9619 4.51179 17.9067 4.71147 17.8784 4.93232L17.671 6.54797L17.148 6.48085ZM22.4336 5.64097L22.9791 5.8557C22.8015 6.30353 22.543 6.62973 22.2037 6.83429C21.8665 7.03717 21.4761 7.11014 21.0325 7.05321C20.5734 6.99429 20.2114 6.85332 19.9466 6.6303C19.684 6.40559 19.4999 6.10628 19.3943 5.73238C19.2907 5.35872 19.2649 4.96848 19.3171 4.56166C19.3741 4.11803 19.5079 3.74237 19.7187 3.43467C19.9317 3.12528 20.2051 2.90536 20.5389 2.77491C20.8748 2.64277 21.2307 2.60082 21.6066 2.64905C22.0327 2.70374 22.3772 2.85822 22.64 3.11248C22.9027 3.36675 23.066 3.69784 23.1298 4.10577L22.558 4.1653C22.499 3.84267 22.3846 3.59858 22.2148 3.43305C22.0451 3.26751 21.8178 3.16647 21.533 3.12993C21.2056 3.08791 20.9214 3.13119 20.6805 3.25977C20.4414 3.38859 20.2603 3.57998 20.1371 3.83395C20.0142 4.08598 19.9347 4.35244 19.8987 4.63334C19.8522 4.9956 19.8638 5.31905 19.9336 5.60369C20.0056 5.88664 20.1444 6.10925 20.3501 6.27151C20.5557 6.43377 20.7883 6.53155 21.0479 6.56487C21.3637 6.60539 21.6427 6.54865 21.885 6.39464C22.1272 6.24064 22.3101 5.98941 22.4336 5.64097ZM25.4988 7.16561C25.284 7.30542 25.0821 7.39766 24.8933 7.44234C24.7063 7.48727 24.5102 7.49656 24.3049 7.47021C23.9658 7.4267 23.7158 7.31093 23.5549 7.12289C23.3942 6.93292 23.3303 6.70911 23.3634 6.45146C23.3828 6.30035 23.4343 6.16716 23.5181 6.05188C23.604 5.93491 23.707 5.84573 23.8271 5.78435C23.9491 5.72322 24.0824 5.68223 24.2268 5.66138C24.333 5.64744 24.4913 5.64118 24.7019 5.64259C25.1306 5.64642 25.4493 5.62627 25.6578 5.58214C25.6689 5.51071 25.6757 5.46531 25.6782 5.44594C25.7055 5.23284 25.6754 5.07636 25.5878 4.97651C25.4693 4.84118 25.2783 4.75661 25.0148 4.7228C24.7688 4.69123 24.5811 4.71145 24.4518 4.78346C24.3246 4.85378 24.2189 4.99479 24.1346 5.20649L23.6321 5.07111C23.7067 4.85817 23.8058 4.6917 23.9295 4.57171C24.0535 4.44978 24.2208 4.3659 24.4315 4.32008C24.6424 4.27232 24.8806 4.26547 25.146 4.29953C25.4094 4.33334 25.6195 4.39181 25.7762 4.47493C25.9329 4.55805 26.0439 4.65205 26.1092 4.75692C26.1748 4.85985 26.2139 4.98498 26.2265 5.13232C26.2325 5.22367 26.2206 5.38558 26.1907 5.61804L26.1012 6.31545C26.0388 6.8017 26.0099 7.11108 26.0146 7.24361C26.0214 7.37446 26.0502 7.50319 26.1009 7.62981L25.5546 7.5597C25.5143 7.44426 25.4957 7.31289 25.4988 7.16561ZM25.6052 5.99186C25.4054 6.04499 25.1122 6.07431 24.7255 6.07982C24.5065 6.08322 24.3499 6.09858 24.2558 6.12589C24.1618 6.15319 24.0857 6.20152 24.0275 6.27085C23.9697 6.33825 23.9349 6.41748 23.9232 6.50853C23.9053 6.64801 23.9427 6.77096 24.0354 6.87737C24.13 6.98403 24.279 7.05041 24.4824 7.07652C24.6839 7.10237 24.8687 7.08178 25.0368 7.01474C25.2051 6.94577 25.3359 6.83948 25.4292 6.69589C25.5005 6.58493 25.551 6.41418 25.5806 6.18365L25.6052 5.99186ZM26.7431 7.71223L27.1391 4.62621L27.6099 4.68662L27.5499 5.15446C27.6981 4.95097 27.827 4.82082 27.9367 4.764C28.0483 4.70744 28.1651 4.68699 28.2872 4.70265C28.4635 4.72528 28.6355 4.80445 28.8031 4.94018L28.5607 5.40234C28.4425 5.31038 28.3195 5.25619 28.1917 5.23978C28.0774 5.22512 27.9702 5.24681 27.8702 5.30487C27.7705 5.36098 27.6934 5.44758 27.639 5.56465C27.557 5.74317 27.5018 5.94285 27.4735 6.1637L27.2662 7.77935L26.7431 7.71223ZM30.7328 8.22424L30.7828 7.83486C30.5479 8.11583 30.2406 8.23196 29.8609 8.18323C29.6148 8.15165 29.3969 8.05476 29.207 7.89256C29.019 7.7306 28.8835 7.5212 28.8002 7.26438C28.7192 7.00587 28.699 6.71873 28.7395 6.40296C28.779 6.09494 28.8661 5.82257 29.0009 5.58584C29.1359 5.34717 29.3146 5.17418 29.5371 5.06687C29.7596 4.95955 29.9978 4.92218 30.2515 4.95474C30.4375 4.97861 30.5981 5.03958 30.7332 5.13765C30.8685 5.23379 30.9736 5.35066 31.0485 5.48827L31.2447 3.95978L31.7648 4.02654L31.2181 8.28652L30.7328 8.22424ZM29.2771 6.47195C29.2263 6.86715 29.2717 7.17327 29.4132 7.39031C29.5547 7.60735 29.7388 7.73041 29.9654 7.7595C30.194 7.78884 30.3997 7.72071 30.5824 7.55512C30.7673 7.38785 30.8844 7.11242 30.9336 6.72885C30.9878 6.30653 30.9462 5.98613 30.8089 5.76765C30.6715 5.54917 30.4837 5.42464 30.2454 5.39406C30.0129 5.36422 29.806 5.43416 29.6248 5.60387C29.4454 5.77383 29.3295 6.06319 29.2771 6.47195Z" fill="white"/>
</svg>
